<svg version="1.0" id="Layer_1" xmlns="http://www.w3.org/2000/svg" xmlns:xlink="http://www.w3.org/1999/xlink" viewBox="0 0 64 64" enable-background="new 0 0 64 64" xml:space="preserve" fill="#ffffff"><g id="SVGRepo_bgCarrier" stroke-width="0"></g><g id="SVGRepo_tracerCarrier" stroke-linecap="round" stroke-linejoin="round"></g><g id="SVGRepo_iconCarrier"> <path fill="#ffffff" d="M60,0H4C1.789,0,0,1.789,0,4v56c0,2.211,1.789,4,4,4h56c2.211,0,4-1.789,4-4V4C64,1.789,62.211,0,60,0z M12,16c-2.211,0-4-1.789-4-4s1.789-4,4-4s4,1.789,4,4S14.211,16,12,16z M52,16H24c-2.211,0-4-1.789-4-4s1.789-4,4-4h28 c2.211,0,4,1.789,4,4S54.211,16,52,16z"></path> </g></svg>